<svg width="15" height="15" viewBox="0 0 15 15" fill="none" xmlns="http://www.w3.org/2000/svg">
<path fill-rule="evenodd" clip-rule="evenodd" d="M5.23484 1.87771H9.76515C10.2974 1.85051 10.819 2.02888 11.2149 2.37345C11.6107 2.71803 11.8482 3.20049 11.875 3.71435V12.4978C11.8757 12.6737 11.7996 12.8417 11.6653 12.9606C11.531 13.0795 11.351 13.1383 11.1695 13.1225C11.0105 13.1225 10.8559 13.072 10.7295 12.9788L7.92714 10.9235C7.66251 10.7319 7.29865 10.7319 7.03402 10.9235L4.25758 12.9788C4.13473 13.0694 3.98505 13.1198 3.83044 13.1225C3.64895 13.1383 3.46895 13.0795 3.33467 12.9606C3.20039 12.8417 3.12427 12.6737 3.12501 12.4978V3.71435C3.15177 3.20049 3.38928 2.71803 3.78511 2.37345C4.18094 2.02888 4.70256 1.85051 5.23484 1.87771ZM8.52902 10.1801L10.8913 11.9293L10.8783 3.71435C10.8171 3.16971 10.318 2.77099 9.75221 2.81477H5.22189C4.65615 2.77099 4.15703 3.16971 4.09579 3.71435V11.9293L6.45802 10.1801C7.0697 9.73022 7.91735 9.73022 8.52902 10.1801Z" fill="black"/>
</svg>
