<svg width="50" height="40" viewBox="0 0 50 40" fill="none" xmlns="http://www.w3.org/2000/svg">
<rect x="0.5" y="0.5" width="49" height="39" rx="7.5" fill="#8CE0F3" fill-opacity="0.1"/>
<rect x="0.5" y="0.5" width="49" height="39" rx="7.5" stroke="black"/>
<path fill-rule="evenodd" clip-rule="evenodd" d="M21.8329 23.1879L22.443 20.2429C22.5319 19.8336 22.7319 19.4591 23.0197 19.1633L28.5944 13.4546C29.1598 12.8595 29.9273 12.5156 30.7341 12.496C31.3425 12.487 31.9293 12.7295 32.3639 13.1696C33.3135 14.329 33.1909 16.0604 32.088 17.0647L26.5133 22.8252C26.2271 23.1226 25.8646 23.3293 25.4686 23.4211L22.6185 24.0516H22.4597C22.2514 24.0598 22.0524 23.9619 21.9273 23.7895C21.8022 23.6172 21.7669 23.3923 21.8329 23.1879ZM23.9057 20.0874C23.7886 20.2047 23.7072 20.3548 23.6716 20.5193L23.2621 22.5316L25.2095 22.0997C25.3686 22.063 25.5139 21.9789 25.6274 21.8579L31.2021 16.0974C31.8128 15.5922 31.934 14.6814 31.4779 14.0246C31.2782 13.8275 31.0101 13.7216 30.7341 13.731C30.2581 13.7507 29.8084 13.9614 29.4804 14.3183L23.9057 20.0874Z" fill="#010101"/>
<path d="M31.9627 19.4397C31.6184 19.4444 31.3403 19.7317 31.3358 20.0874V25.0016C31.347 25.6962 31.0878 26.3664 30.6164 26.8617C30.1449 27.3569 29.5008 27.6358 28.8285 27.6357H20.8634C19.4738 27.6076 18.3603 26.4378 18.356 25.0016V16.8056C18.3788 15.3677 19.5135 14.2144 20.9052 14.2146H25.6608C26.007 14.2146 26.2877 13.9246 26.2877 13.5669C26.2877 13.2092 26.007 12.9192 25.6608 12.9192H20.8634C18.7793 12.919 17.0834 14.6522 17.0605 16.8056V25.0016C17.0605 27.1719 18.7631 28.9312 20.8634 28.9312H28.795C30.892 28.9265 32.5895 27.1685 32.5895 25.0016V20.0874C32.585 19.7317 32.307 19.4444 31.9627 19.4397Z" fill="#010101"/>
</svg>
