<svg width="50" height="40" viewBox="0 0 50 40" fill="none" xmlns="http://www.w3.org/2000/svg">
<rect x="0.5" y="0.5" width="49" height="39" rx="7.5" fill="#F03D3E" fill-opacity="0.1"/>
<rect x="0.5" y="0.5" width="49" height="39" rx="7.5" stroke="#F03D3E"/>
<path d="M31.5361 16.0455C31.1655 16.0455 30.865 16.351 30.865 16.7278V24.3625C30.865 25.9699 29.5833 27.273 28.0023 27.273H23.1771C21.5961 27.273 20.3144 25.9699 20.3144 24.3625V16.7278C20.3144 16.351 20.0139 16.0455 19.6433 16.0455C19.2726 16.0455 18.9722 16.351 18.9722 16.7278V24.3625C18.9955 26.7305 20.8903 28.6377 23.2196 28.6375H28.0447C30.3575 28.6141 32.2267 26.7138 32.2497 24.3625V16.7278C32.2501 16.5391 32.1736 16.3587 32.0384 16.2294C31.9032 16.1002 31.7214 16.0336 31.5361 16.0455Z" fill="#F03D3E"/>
<path fill-rule="evenodd" clip-rule="evenodd" d="M31.5361 14.8192H19.6433C19.2726 14.8192 18.9722 14.5137 18.9722 14.1369C18.9722 13.7601 19.2726 13.4546 19.6433 13.4546H21.8944L22.8968 12.3491C23.28 11.9531 23.803 11.7292 24.3494 11.7273H26.83C27.3684 11.7273 27.8848 11.9448 28.2656 12.3318L29.285 13.4546H31.5361C31.9068 13.4546 32.2072 13.7601 32.2072 14.1369C32.2072 14.5137 31.9068 14.8192 31.5361 14.8192ZM26.83 13.0919H24.3494C24.1796 13.0919 24.016 13.1566 23.8907 13.2732L23.7293 13.446H27.4501L27.2887 13.2732C27.1644 13.1551 27.0001 13.0902 26.83 13.0919Z" fill="#F03D3E"/>
<path d="M22.4041 17.5915V20.1824C22.4041 20.5402 22.6894 20.8302 23.0412 20.8302C23.3931 20.8302 23.6783 20.5402 23.6783 20.1824V17.5915C23.6783 17.2337 23.3931 16.9437 23.0412 16.9437C22.6894 16.9437 22.4041 17.2337 22.4041 17.5915Z" fill="#F03D3E"/>
<path d="M24.9526 17.5915V24.5007C24.9526 24.8584 25.2378 25.1484 25.5897 25.1484C25.9416 25.1484 26.2268 24.8584 26.2268 24.5007V17.5915C26.2268 17.2337 25.9416 16.9437 25.5897 16.9437C25.2378 16.9437 24.9526 17.2337 24.9526 17.5915Z" fill="#F03D3E"/>
<path d="M27.5011 17.5915V20.1824C27.5011 20.5402 27.7863 20.8302 28.1382 20.8302C28.49 20.8302 28.7753 20.5402 28.7753 20.1824V17.5915C28.7753 17.2337 28.49 16.9437 28.1382 16.9437C27.7863 16.9437 27.5011 17.2337 27.5011 17.5915Z" fill="#F03D3E"/>
</svg>
