<svg width="50" height="40" viewBox="0 0 50 40" fill="none" xmlns="http://www.w3.org/2000/svg">
<rect x="0.5" y="0.5" width="49" height="39" rx="7.5" fill="white" fill-opacity="0.1"/>
<rect x="0.5" y="0.5" width="49" height="39" rx="7.5" stroke="#141414"/>
<path fill-rule="evenodd" clip-rule="evenodd" d="M23.7841 13.9298C24.0248 13.1252 24.7494 12.5803 25.5643 12.5911C26.3838 12.5826 27.1099 13.1356 27.3445 13.947L27.8962 15.6743C28.1439 16.4737 28.8641 17.0153 29.6764 17.013H31.4148C32.2463 16.9804 32.9987 17.5188 33.2618 18.3344C33.5249 19.15 33.2356 20.0472 32.5515 20.5367L31.1223 21.6162C30.4636 22.1052 30.1864 22.9782 30.437 23.7754L30.9886 25.5027C31.1781 26.1006 31.0758 26.7564 30.7139 27.2624C30.352 27.7685 29.7754 28.0621 29.1666 28.0504C28.7718 28.0473 28.3882 27.9142 28.0717 27.6704L26.701 26.5909C26.0436 26.0954 25.1519 26.0954 24.4945 26.5909L23.0569 27.6704C22.7366 27.9368 22.3397 28.0856 21.9286 28.0936C21.3154 28.0989 20.7382 27.7948 20.3821 27.2789C20.0259 26.763 19.9356 26.1001 20.14 25.5027L20.6917 23.7754C20.9574 22.9806 20.6935 22.0996 20.0397 21.599L18.6105 20.5194C17.9481 20.0283 17.6694 19.1506 17.9215 18.3494C18.1736 17.5481 18.8985 17.0076 19.7138 17.013H21.4522C22.2691 17.0129 22.9907 16.4633 23.2325 15.6571L23.7841 13.9298ZM26.0073 14.3789C25.9559 14.172 25.7707 14.0312 25.5643 14.042C25.3477 14.0344 25.1587 14.1928 25.1213 14.4134L24.5697 16.1407C24.1313 17.5366 22.8725 18.4817 21.4522 18.4812H19.6804C19.4834 18.487 19.3111 18.6197 19.2494 18.8131C19.1876 19.0064 19.2497 19.219 19.4045 19.3448L20.8337 20.4244C21.9865 21.286 22.4694 22.8179 22.0289 24.2158L21.4773 25.9431C21.4231 26.085 21.4454 26.2458 21.5358 26.3663C21.6296 26.5058 21.7811 26.5921 21.9453 26.5995C22.0457 26.5964 22.1423 26.5601 22.2212 26.4959L23.6336 25.4163C24.7849 24.552 26.3438 24.552 27.495 25.4163L28.8908 26.444C28.9696 26.5082 29.0663 26.5446 29.1666 26.5477C29.3234 26.5371 29.4674 26.4548 29.5594 26.3231C29.6498 26.2026 29.6721 26.0418 29.6179 25.8999L29.0663 24.1726C28.6257 22.7747 29.1087 21.2428 30.2614 20.3812L31.6906 19.3103C31.8455 19.1845 31.9076 18.9719 31.8458 18.7785C31.7841 18.5852 31.6118 18.4525 31.4148 18.4466H29.6764C28.2561 18.4472 26.9973 17.5021 26.5589 16.1062L26.0073 14.3789Z" fill="#0C0C0C"/>
</svg>
