<svg width="15" height="15" viewBox="0 0 15 15" fill="none" xmlns="http://www.w3.org/2000/svg">
<path d="M5.40625 4.74375C5.22156 4.57165 4.93374 4.57673 4.75524 4.75524C4.57673 4.93374 4.57165 5.22156 4.74375 5.40625L7.10625 7.76875V10.7C7.10625 10.9589 7.31612 11.1688 7.575 11.1688C7.83388 11.1688 8.04375 10.9589 8.04375 10.7V7.575C8.04364 7.45072 7.99418 7.33157 7.90625 7.24375L5.40625 4.74375Z" fill="#030303"/>
<path fill-rule="evenodd" clip-rule="evenodd" d="M6.25 1.25H8.9C10.2261 1.25 11.4979 1.77678 12.4355 2.71447C13.3732 3.65215 13.9 4.92392 13.9 6.25V8.9C13.9 11.6614 11.6614 13.9 8.9 13.9H6.25C3.48858 13.9 1.25 11.6614 1.25 8.9V6.25C1.25 3.48858 3.48858 1.25 6.25 1.25ZM8.9 12.9625C11.1422 12.9591 12.9591 11.1422 12.9625 8.9V6.25C12.9591 4.00777 11.1422 2.19094 8.9 2.1875H6.25C4.00777 2.19094 2.19094 4.00777 2.1875 6.25V8.9C2.19094 11.1422 4.00777 12.9591 6.25 12.9625H8.9Z" fill="#030303"/>
</svg>
