<svg width="16" height="16" viewBox="0 0 16 16" fill="none" xmlns="http://www.w3.org/2000/svg">
<path d="M13.1457 12.2604L8.88318 8.0002L13.1457 3.77138C13.3593 3.52398 13.3478 3.1527 13.1192 2.91925C12.8906 2.68581 12.522 2.6689 12.2733 2.88045L7.99827 7.07789L3.79806 2.84908C3.555 2.60581 3.16245 2.60581 2.91939 2.84908C2.80141 2.96688 2.73505 3.12725 2.73505 3.29454C2.73505 3.46184 2.80141 3.6222 2.91939 3.74001L7.11336 7.96256L2.85084 12.1851C2.73286 12.3029 2.6665 12.4633 2.6665 12.6306C2.6665 12.7979 2.73286 12.9582 2.85084 13.076C2.96844 13.1935 3.12765 13.259 3.29329 13.258C3.4559 13.259 3.61244 13.1959 3.72952 13.0823L7.99827 8.84722L12.2733 13.1513C12.3909 13.2688 12.5501 13.3342 12.7157 13.3333C12.8792 13.3326 13.0359 13.2672 13.1519 13.1513C13.2691 13.0327 13.3343 12.8718 13.3332 12.7046C13.332 12.5373 13.2645 12.3774 13.1457 12.2604Z" fill="black"/>
</svg>
