<svg width="21" height="21" viewBox="0 0 21 21" fill="none" xmlns="http://www.w3.org/2000/svg">
<path fill-rule="evenodd" clip-rule="evenodd" d="M6.8329 13.1879L7.44303 10.2429C7.53185 9.83364 7.73193 9.45911 8.01972 9.16334L13.5944 3.45462C14.1598 2.85954 14.9273 2.51565 15.7341 2.49597C16.3425 2.48696 16.9293 2.72948 17.3639 3.16962C18.3135 4.32904 18.1909 6.06044 17.088 7.06467L11.5133 12.8252C11.2271 13.1226 10.8646 13.3293 10.4686 13.4211L7.61854 14.0516H7.45974C7.25139 14.0598 7.05239 13.9619 6.92728 13.7895C6.80218 13.6172 6.76691 13.3923 6.8329 13.1879ZM8.90566 10.0874C8.78855 10.2047 8.70721 10.3548 8.67164 10.5193L8.2621 12.5316L10.2095 12.0997C10.3686 12.063 10.5139 11.9789 10.6274 11.8579L16.2021 6.09739C16.8128 5.59217 16.934 4.68141 16.4779 4.02463C16.2782 3.82746 16.0101 3.72163 15.7341 3.73099C15.2581 3.75074 14.8084 3.96141 14.4804 4.31827L8.90566 10.0874Z" fill="#010101"/>
<path d="M16.9627 9.43971C16.6184 9.44436 16.3403 9.73166 16.3358 10.0874V15.0016C16.347 15.6962 16.0878 16.3664 15.6164 16.8617C15.1449 17.3569 14.5008 17.6358 13.8285 17.6357H5.86339C4.47378 17.6076 3.3603 16.4378 3.35602 15.0016V6.80558C3.37884 5.36768 4.51348 4.21444 5.90518 4.21463H10.6608C11.007 4.21463 11.2877 3.92463 11.2877 3.56689C11.2877 3.20916 11.007 2.91916 10.6608 2.91916H5.86339C3.77935 2.91903 2.08345 4.6522 2.06055 6.80558V15.0016C2.06055 17.1719 3.76314 18.9312 5.86339 18.9312H13.795C15.892 18.9265 17.5895 17.1685 17.5895 15.0016V10.0874C17.585 9.73166 17.307 9.44436 16.9627 9.43971Z" fill="#010101"/>
</svg>
