<svg width="21" height="21" viewBox="0 0 21 21" fill="none" xmlns="http://www.w3.org/2000/svg">
<path fill-rule="evenodd" clip-rule="evenodd" d="M8.78408 3.92976C9.02481 3.12516 9.74938 2.58032 10.5643 2.5911C11.3838 2.58259 12.1099 3.13559 12.3445 3.94703L12.8962 5.67433C13.1439 6.47374 13.8641 7.01532 14.6764 7.01298H16.4148C17.2463 6.98043 17.9987 7.51877 18.2618 8.3344C18.5249 9.15004 18.2356 10.0472 17.5515 10.5367L16.1223 11.6162C15.4636 12.1052 15.1864 12.9782 15.437 13.7754L15.9886 15.5027C16.1781 16.1006 16.0758 16.7564 15.7139 17.2624C15.352 17.7685 14.7754 18.0621 14.1666 18.0504C13.7718 18.0473 13.3882 17.9142 13.0717 17.6704L11.701 16.5909C11.0436 16.0954 10.1519 16.0954 9.4945 16.5909L8.05694 17.6704C7.7366 17.9368 7.33972 18.0856 6.92863 18.0936C6.31539 18.0989 5.73819 17.7948 5.38205 17.2789C5.02592 16.763 4.9356 16.1001 5.14004 15.5027L5.69166 13.7754C5.95742 12.9806 5.69352 12.0996 5.03974 11.599L3.61054 10.5194C2.94807 10.0283 2.66936 9.15059 2.92146 8.34936C3.17355 7.54814 3.89847 7.00763 4.71378 7.01298H6.45223C7.26907 7.01295 7.9907 6.46331 8.23246 5.65705L8.78408 3.92976ZM11.0073 4.37885C10.9559 4.17204 10.7707 4.03121 10.5643 4.04203C10.3477 4.03437 10.1587 4.19279 10.1213 4.4134L9.56972 6.1407C9.13133 7.53663 7.87248 8.48172 6.45223 8.48119H4.68035C4.48341 8.48705 4.3111 8.61973 4.24936 8.81307C4.18761 9.00641 4.24965 9.219 4.40454 9.34484L5.83374 10.4244C6.98653 11.286 7.46944 12.8179 7.02892 14.2158L6.4773 15.9431C6.42312 16.085 6.44536 16.2458 6.5358 16.3663C6.6296 16.5058 6.78108 16.5921 6.94534 16.5995C7.04565 16.5964 7.14235 16.5601 7.22115 16.4959L8.63364 15.4163C9.78487 14.552 11.3438 14.552 12.495 15.4163L13.8908 16.444C13.9696 16.5082 14.0663 16.5446 14.1666 16.5477C14.3234 16.5371 14.4674 16.4548 14.5594 16.3231C14.6498 16.2026 14.6721 16.0418 14.6179 15.8999L14.0663 14.1726C13.6257 12.7747 14.1087 11.2428 15.2614 10.3812L16.6906 9.31029C16.8455 9.18446 16.9076 8.97186 16.8458 8.77852C16.7841 8.58518 16.6118 8.4525 16.4148 8.44664H14.6764C13.2561 8.44717 11.9973 7.50208 11.5589 6.10615L11.0073 4.37885Z" fill="#0C0C0C"/>
</svg>
