<svg width="21" height="21" viewBox="0 0 21 21" fill="none" xmlns="http://www.w3.org/2000/svg">
<path d="M16.5361 6.04554C16.1655 6.04554 15.865 6.35101 15.865 6.72782V14.3625C15.865 15.9699 14.5833 17.273 13.0023 17.273H8.17715C6.59608 17.273 5.31436 15.9699 5.31436 14.3625V6.72782C5.31436 6.35101 5.0139 6.04554 4.64327 6.04554C4.27263 6.04554 3.97217 6.35101 3.97217 6.72782V14.3625C3.99546 16.7305 5.89031 18.6377 8.21962 18.6375H13.0447C15.3575 18.6141 17.2267 16.7138 17.2497 14.3625V6.72782C17.2501 6.53913 17.1736 6.35871 17.0384 6.22944C16.9032 6.10017 16.7214 6.0336 16.5361 6.04554Z" fill="#F03D3E"/>
<path fill-rule="evenodd" clip-rule="evenodd" d="M16.5361 4.81916H4.64327C4.27263 4.81916 3.97217 4.51369 3.97217 4.13688C3.97217 3.76006 4.27263 3.45459 4.64327 3.45459H6.89442L7.89682 2.34912C8.28 1.95306 8.80301 1.72917 9.34945 1.72729H11.83C12.3684 1.72729 12.8848 1.94475 13.2656 2.33185L14.285 3.45459H16.5361C16.9068 3.45459 17.2072 3.76006 17.2072 4.13688C17.2072 4.51369 16.9068 4.81916 16.5361 4.81916ZM11.83 3.09186H9.34945C9.17962 3.09192 9.01597 3.15662 8.89072 3.27323L8.72932 3.44596H12.4501L12.2887 3.27323C12.1644 3.15513 12.0001 3.09019 11.83 3.09186Z" fill="#F03D3E"/>
<path d="M7.40411 7.59147V10.1824C7.40411 10.5402 7.68936 10.8302 8.04123 10.8302C8.3931 10.8302 8.67835 10.5402 8.67835 10.1824V7.59147C8.67835 7.23374 8.3931 6.94374 8.04123 6.94374C7.68936 6.94374 7.40411 7.23374 7.40411 7.59147Z" fill="#F03D3E"/>
<path d="M9.95258 7.59147V14.5007C9.95258 14.8584 10.2378 15.1484 10.5897 15.1484C10.9416 15.1484 11.2268 14.8584 11.2268 14.5007V7.59147C11.2268 7.23374 10.9416 6.94374 10.5897 6.94374C10.2378 6.94374 9.95258 7.23374 9.95258 7.59147Z" fill="#F03D3E"/>
<path d="M12.5011 7.59147V10.1824C12.5011 10.5402 12.7863 10.8302 13.1382 10.8302C13.49 10.8302 13.7753 10.5402 13.7753 10.1824V7.59147C13.7753 7.23374 13.49 6.94374 13.1382 6.94374C12.7863 6.94374 12.5011 7.23374 12.5011 7.59147Z" fill="#F03D3E"/>
</svg>
