<svg width="15" height="15" viewBox="0 0 15 15" fill="none" xmlns="http://www.w3.org/2000/svg">
<path fill-rule="evenodd" clip-rule="evenodd" d="M1.70584 4.92642C2.63069 2.69859 4.80675 1.24747 7.21892 1.25C8.7997 1.25 10.3156 1.87839 11.4328 2.99676C12.55 4.11512 13.1768 5.63173 13.1752 7.2125C13.1752 9.62468 11.7218 11.7992 9.49298 12.7217C7.26418 13.6442 4.69911 13.133 2.99434 11.4264C1.28957 9.71985 0.780987 7.15425 1.70584 4.92642ZM11.8939 9.025C12.1121 8.44578 12.2223 7.83146 12.2189 7.2125C12.233 6.07419 11.8581 4.96516 11.1564 4.06875C10.8752 4.5375 10.3439 5.2375 9.68767 5.2375C9.43519 5.2172 9.18113 5.24261 8.93767 5.3125V5.38125C8.93767 5.49375 9.24392 5.8 9.40642 5.9625C9.81113 6.26428 10.0806 6.7134 10.1564 7.2125C10.1564 8.2125 10.2564 8.51875 10.3439 8.59375C10.8842 8.6324 11.4113 8.77904 11.8939 9.025ZM2.21892 7.2125C2.21324 6.10066 2.57831 5.01864 3.25642 4.1375C3.43352 4.46049 3.77566 4.65807 4.14392 4.65C4.64964 4.90499 5.09664 5.2626 5.45642 5.7C5.19171 5.86277 4.95176 6.06273 4.74392 6.29375C4.72463 6.31233 4.70363 6.33278 4.68137 6.35445C4.50895 6.52235 4.2616 6.76322 4.15642 6.76875C3.86706 6.76 3.58693 6.87111 3.38223 7.07581C3.17753 7.28051 3.06642 7.56064 3.07517 7.85C3.07607 7.92164 3.09316 7.99215 3.12517 8.05625L3.68767 9.18125C3.69485 9.82832 3.79806 10.4707 3.99392 11.0875C2.85378 10.1253 2.20286 8.70429 2.21892 7.2125ZM5.51267 11.9125C6.05963 12.111 6.63705 12.2125 7.21892 12.2125V12.2313C8.93906 12.2428 10.5444 11.3693 11.4689 9.91875C11.0919 9.73621 10.6894 9.61188 10.2752 9.55C9.19392 9.55 9.19392 8 9.19392 7.25C9.19392 7.13673 8.91529 6.85856 8.74313 6.68668C8.73479 6.67836 8.72671 6.67029 8.71892 6.6625C8.31707 6.35914 8.05007 5.9104 7.97517 5.4125C7.97517 4.33125 9.07517 4.33125 9.66267 4.33125C9.82517 4.325 10.2127 3.8625 10.4502 3.4C8.59688 1.83117 5.88436 1.82062 4.01892 3.375C4.02838 3.42876 4.02838 3.48375 4.01892 3.5375C4.02517 3.6875 4.09392 3.6875 4.16267 3.6875C4.91267 3.6875 6.59392 5.2125 6.61892 5.925C6.61992 6.08568 6.55216 6.2391 6.43273 6.34659C6.3133 6.45408 6.1536 6.50536 5.99392 6.4875C5.88142 6.49375 5.57517 6.8 5.41267 6.9625C5.10863 7.3647 4.66063 7.6335 4.16267 7.7125C4.11267 7.7125 4.03767 7.7125 4.03767 7.775L4.58142 8.81875C4.61343 8.88285 4.63052 8.95336 4.63142 9.025C4.63142 9.70625 4.78142 10.8125 5.10642 11.1438C5.33318 11.3402 5.47812 11.6145 5.51267 11.9125Z" fill="black"/>
</svg>
